<?xml version="1.0" encoding="utf-8"?>
<!-- Generator: Adobe Illustrator 16.0.0, SVG Export Plug-In . SVG Version: 6.00 Build 0)  -->
<!DOCTYPE svg PUBLIC "-//W3C//DTD SVG 1.1//EN" "http://www.w3.org/Graphics/SVG/1.1/DTD/svg11.dtd">
<svg version="1.1" id="Layer_1" xmlns="http://www.w3.org/2000/svg" xmlns:xlink="http://www.w3.org/1999/xlink" x="0px" y="0px"
	 width="237.13px" height="33.001px" viewBox="10.106 8.162 237.13 33.001" enable-background="new 10.106 8.162 237.13 33.001"
	 xml:space="preserve">
<path fill="#0C4775" d="M33.876,40.73h-3.174V19.219l-7.21,21.511H20.49l-7.21-21.511V40.73h-3.174V15.441h5.02l6.849,21.08
	l6.883-21.08h5.02V40.73H33.876z"/>
<path fill="#0C4775" d="M45.882,41.162c-2.691,0-4.853-0.843-6.486-2.527c-1.633-1.684-2.449-4.033-2.449-7.047
	c0-2.99,0.791-5.333,2.372-7.029s3.648-2.544,6.201-2.544c2.611,0,4.695,0.834,6.253,2.501c1.559,1.668,2.337,4.025,2.337,7.073
	v0.777H40.328c0.138,2.114,0.722,3.686,1.751,4.709c1.029,1.022,2.297,1.534,3.804,1.534c1.139,0,2.165-0.291,3.08-0.87
	c0.914-0.58,1.394-1.406,1.44-2.478h3.364c-0.253,1.887-1.107,3.342-2.562,4.365C49.75,40.65,47.976,41.162,45.882,41.162z
	 M50.678,29.811c-0.265-1.759-0.857-3.076-1.777-3.95s-2.047-1.311-3.381-1.311c-1.299,0-2.415,0.434-3.346,1.302
	c-0.932,0.869-1.524,2.188-1.777,3.958L50.678,29.811L50.678,29.811z"/>
<path fill="#0C4775" d="M69.343,38.541c-1.449,1.748-3.191,2.621-5.227,2.621c-2.392,0-4.244-0.853-5.555-2.554
	c-1.311-1.7-1.966-3.996-1.966-6.883c0-2.991,0.733-5.356,2.199-7.099c1.466-1.742,3.309-2.613,5.529-2.613
	c1.978,0,3.651,0.609,5.02,1.829v-8.401h3.243V40.73h-3.243V38.541z M69.343,35.469v-8.693c-1.403-1.483-3.007-2.226-4.813-2.226
	c-1.392,0-2.504,0.601-3.338,1.803s-1.25,2.993-1.25,5.374c0,2.254,0.394,3.965,1.182,5.131c0.788,1.168,1.877,1.752,3.269,1.752
	C66.209,38.609,67.86,37.562,69.343,35.469z"/>
<path fill="#0C4775" d="M79.659,18.96h-3.26v-3.52h3.26V18.96z M79.659,40.73h-3.26V22.428h3.26V40.73z"/>
<path fill="#0C4775" d="M95.047,38.852c-1.656,1.541-3.79,2.312-6.4,2.312c-1.817,0-3.312-0.492-4.485-1.476
	c-1.173-0.983-1.759-2.252-1.759-3.805c0-4.277,3.686-6.416,11.058-6.416h1.587c0-1.312-0.069-2.263-0.207-2.855
	c-0.138-0.592-0.523-1.084-1.156-1.475c-0.632-0.391-1.639-0.586-3.019-0.586c-2.898,0-4.393,1.035-4.485,3.105h-3.243
	c0.242-3.761,2.875-5.642,7.901-5.642c2.346,0,4.174,0.466,5.486,1.397c1.311,0.932,1.966,2.76,1.966,5.485V40.73h-3.243
	L95.047,38.852L95.047,38.852z M95.047,35.918v-4.056h-2.225c-4.715,0-7.073,1.283-7.073,3.849c0,0.932,0.345,1.647,1.035,2.147
	s1.622,0.75,2.795,0.75c1.069,0,2.104-0.241,3.105-0.725S94.472,36.746,95.047,35.918z"/>
<path fill="#B00000" d="M103.672,16.004h10.103c5.899,0,9.467,3.497,9.467,8.549v0.07c0,5.723-4.451,8.688-9.997,8.688h-4.133v7.418
	h-5.44V16.004z M113.422,28.474c2.72,0,4.31-1.625,4.31-3.745v-0.069c0-2.438-1.696-3.745-4.416-3.745h-4.204v7.56H113.422z"/>
<path fill="#B00000" d="M126.177,28.438v-0.069c0-7.03,5.546-12.788,13.176-12.788s13.105,5.688,13.105,12.717v0.071
	c0,7.028-5.545,12.786-13.175,12.786C131.653,41.154,126.177,35.467,126.177,28.438z M146.771,28.438v-0.069
	c0-4.239-3.107-7.771-7.489-7.771s-7.418,3.462-7.418,7.701v0.071c0,4.237,3.108,7.771,7.488,7.771
	C143.733,36.139,146.771,32.678,146.771,28.438z"/>
<path fill="#B00000" d="M156.3,16.004h11.305c3.145,0,5.582,0.883,7.207,2.508c1.377,1.377,2.119,3.32,2.119,5.652v0.069
	c0,3.992-2.155,6.5-5.299,7.666l6.039,8.83h-6.357l-5.298-7.912h-4.274v7.912h-5.439V16.004H156.3z M167.251,28.014
	c2.649,0,4.168-1.413,4.168-3.497v-0.07c0-2.331-1.625-3.532-4.273-3.532h-5.404v7.1H167.251z"/>
<path fill="#B00000" d="M187.602,21.02h-7.522v-5.016h20.487v5.016h-7.524v19.71h-5.439L187.602,21.02L187.602,21.02z"/>
<path fill="#B00000" d="M210.037,15.828h5.016l10.598,24.902h-5.688l-2.262-5.545h-10.455l-2.262,5.545h-5.546L210.037,15.828z
	 M215.759,30.381l-3.285-8.02l-3.285,8.02H215.759z M214.628,8.162l4.627,2.014l-4.805,3.532h-4.098L214.628,8.162z"/>
<path fill="#B00000" d="M229.468,16.004h5.439v19.781h12.328v4.944h-17.77V16.004H229.468z"/>
</svg>
