<?xml version="1.0" encoding="utf-8"?>
<!-- Generator: Adobe Illustrator 16.0.0, SVG Export Plug-In . SVG Version: 6.00 Build 0)  -->
<!DOCTYPE svg PUBLIC "-//W3C//DTD SVG 1.1//EN" "http://www.w3.org/Graphics/SVG/1.1/DTD/svg11.dtd">
<svg version="1.1" id="Layer_1" xmlns="http://www.w3.org/2000/svg" xmlns:xlink="http://www.w3.org/1999/xlink" x="0px" y="0px"
	 width="251.234px" height="52.354px" viewBox="16.329 2.461 251.234 52.354" enable-background="new 16.329 2.461 251.234 52.354"
	 xml:space="preserve">
<g>
	<path fill="#144874" d="M73.947,46.369c-0.245-0.107-0.29-0.184-0.29-0.521c0-0.843,0.06-1.759,0.075-2.002
		c0.016-0.229,0.06-0.399,0.184-0.399c0.138,0,0.152,0.14,0.152,0.262c0,0.196,0.062,0.52,0.139,0.779
		c0.335,1.133,1.238,1.546,2.187,1.546c1.376,0,2.05-0.935,2.05-1.742c0-0.749-0.229-1.456-1.499-2.448l-0.703-0.552
		c-1.683-1.316-2.266-2.391-2.266-3.625c0-1.685,1.407-2.896,3.537-2.896c0.992,0,1.636,0.155,2.033,0.261
		c0.136,0.029,0.214,0.079,0.214,0.185c0,0.201-0.063,0.645-0.063,1.835c0,0.339-0.044,0.459-0.166,0.459
		c-0.107,0-0.154-0.09-0.154-0.274c0-0.139-0.077-0.61-0.397-1.009c-0.229-0.289-0.675-0.75-1.671-0.75
		c-1.132,0-1.82,0.655-1.82,1.574c0,0.705,0.353,1.24,1.624,2.205l0.429,0.323c1.85,1.392,2.508,2.443,2.508,3.898
		c0,0.889-0.335,1.944-1.436,2.664c-0.764,0.488-1.62,0.623-2.436,0.623C75.292,46.765,74.604,46.661,73.947,46.369z"/>
	<path fill="#144874" d="M85.654,42.771c0,1.668,0,2.497,0.289,2.741c0.229,0.197,0.75,0.276,1.792,0.276
		c0.72,0,1.237-0.019,1.574-0.367c0.171-0.167,0.307-0.536,0.339-0.781c0.015-0.122,0.042-0.201,0.153-0.201
		c0.093,0,0.121,0.142,0.121,0.292c0,0.154-0.089,1.116-0.197,1.499c-0.092,0.292-0.154,0.354-0.856,0.354
		c-0.963,0-1.744-0.016-2.42-0.045c-0.672-0.018-1.239-0.031-1.789-0.031c-0.154,0-0.443,0.015-0.766,0.015
		c-0.32,0.018-0.657,0.029-0.93,0.029c-0.17,0-0.262-0.044-0.262-0.137c0-0.062,0.044-0.14,0.213-0.14
		c0.2,0,0.352-0.015,0.476-0.046c0.274-0.06,0.352-0.305,0.396-0.688c0.061-0.548,0.061-1.575,0.061-2.771v-2.294
		c0-1.973,0-2.34-0.014-2.753c-0.031-0.444-0.152-0.584-0.582-0.704c-0.108-0.027-0.275-0.047-0.447-0.047
		c-0.151,0-0.228-0.045-0.228-0.139c0-0.09,0.093-0.121,0.292-0.121c0.628,0,1.485,0.031,1.853,0.031
		c0.319,0,1.422-0.031,1.942-0.031c0.198,0,0.292,0.031,0.292,0.121c0,0.094-0.078,0.139-0.247,0.139
		c-0.154,0-0.369,0.02-0.52,0.047c-0.369,0.062-0.475,0.245-0.504,0.704c-0.031,0.413-0.031,0.78-0.031,2.753V42.771z"/>
	<path fill="#144874" d="M91.286,41.624c0-2.216,1.56-5.096,5.645-5.096c3.398,0,5.51,1.886,5.51,4.865
		c0,2.985-2.175,5.326-5.647,5.326C92.875,46.721,91.286,43.935,91.286,41.624z M100.434,41.869c0-2.874-1.729-4.65-3.903-4.65
		c-1.497,0-3.254,0.795-3.254,4.009c0,2.677,1.527,4.79,4.067,4.79C98.293,46.018,100.434,45.571,100.434,41.869z"/>
	<path fill="#144874" d="M104.906,37.985c-0.305-0.72-0.506-0.845-0.995-0.965c-0.197-0.047-0.414-0.047-0.521-0.047
		c-0.123,0-0.152-0.062-0.152-0.139c0-0.105,0.134-0.121,0.335-0.121c0.717,0,1.486,0.031,1.958,0.031
		c0.337,0,1.043-0.031,1.713-0.031c0.168,0,0.323,0.031,0.323,0.121c0,0.094-0.092,0.139-0.214,0.139
		c-0.214,0-0.412,0.02-0.521,0.094c-0.092,0.062-0.138,0.138-0.138,0.262c0,0.166,0.123,0.519,0.306,0.977l2.264,5.828h0.046
		c0.582-1.344,2.309-5.538,2.632-6.396c0.061-0.166,0.12-0.364,0.12-0.473c0-0.138-0.059-0.184-0.181-0.229
		c-0.154-0.045-0.367-0.063-0.537-0.063c-0.121,0-0.229-0.045-0.229-0.139c0-0.09,0.125-0.121,0.382-0.121
		c0.679,0,1.271,0.031,1.439,0.031c0.232,0,0.858-0.031,1.272-0.031c0.168,0,0.274,0.031,0.274,0.121
		c0,0.094-0.076,0.139-0.215,0.139c-0.136,0-0.427-0.014-0.658,0.154c-0.168,0.121-0.351,0.318-0.702,1.147
		c-0.535,1.223-0.89,1.928-1.623,3.519c-0.856,1.896-1.484,3.321-1.788,3.978c-0.337,0.751-0.458,0.949-0.643,0.949
		c-0.184,0-0.291-0.169-0.551-0.778L104.906,37.985z"/>
	<path fill="#144874" d="M116.671,40.478c0-1.973,0-2.34-0.012-2.753c-0.033-0.443-0.155-0.584-0.581-0.704
		c-0.107-0.027-0.337-0.047-0.536-0.047c-0.138,0-0.23-0.045-0.23-0.139c0-0.09,0.106-0.121,0.305-0.121
		c0.702,0,1.559,0.031,1.943,0.031c0.429,0,3.413,0.015,3.672,0c0.244-0.017,0.459-0.062,0.566-0.076
		c0.077-0.018,0.151-0.063,0.214-0.063c0.076,0,0.094,0.063,0.094,0.124c0,0.094-0.08,0.244-0.108,0.844
		c-0.015,0.135-0.049,0.703-0.076,0.855c-0.018,0.062-0.046,0.213-0.153,0.213c-0.093,0-0.108-0.062-0.108-0.168
		c0-0.09-0.016-0.322-0.093-0.471c-0.106-0.233-0.212-0.416-0.885-0.478c-0.229-0.031-1.837-0.062-2.11-0.062
		c-0.062,0-0.094,0.045-0.094,0.123V40.8c0,0.077,0.017,0.139,0.094,0.139c0.303,0,2.05,0,2.356-0.03
		c0.319-0.03,0.518-0.062,0.639-0.196c0.108-0.094,0.154-0.172,0.215-0.172c0.061,0,0.108,0.061,0.108,0.14
		c0,0.074-0.031,0.291-0.108,0.945c-0.031,0.263-0.061,0.783-0.061,0.874c0,0.107-0.014,0.291-0.137,0.291
		c-0.09,0-0.124-0.044-0.124-0.108c-0.015-0.137-0.015-0.305-0.044-0.475c-0.079-0.261-0.245-0.458-0.75-0.503
		c-0.244-0.03-1.775-0.062-2.11-0.062c-0.061,0-0.078,0.062-0.078,0.14v1.04c0,0.442-0.016,1.546,0,1.929
		c0.032,0.886,0.444,1.086,1.821,1.086c0.351,0,0.918-0.018,1.268-0.17c0.336-0.151,0.493-0.426,0.583-0.965
		c0.029-0.137,0.062-0.197,0.152-0.197c0.106,0,0.123,0.169,0.123,0.306c0,0.291-0.107,1.181-0.184,1.439
		c-0.09,0.337-0.214,0.337-0.719,0.337c-1.008,0-1.819-0.016-2.479-0.045c-0.656-0.018-1.161-0.031-1.56-0.031
		c-0.151,0-0.443,0.015-0.767,0.015c-0.318,0.018-0.654,0.029-0.932,0.029c-0.169,0-0.263-0.044-0.263-0.137
		c0-0.062,0.049-0.14,0.217-0.14c0.197,0,0.35-0.015,0.473-0.046c0.277-0.06,0.355-0.305,0.397-0.688
		c0.06-0.548,0.06-1.575,0.06-2.771v-2.295H116.671z"/>
	<path fill="#144874" d="M126.79,44.779c0.031,1.011,0.199,1.314,0.458,1.407c0.229,0.075,0.49,0.09,0.705,0.09
		c0.154,0,0.229,0.062,0.229,0.14c0,0.106-0.121,0.137-0.305,0.137c-0.874,0-1.499-0.044-1.747-0.044
		c-0.121,0-0.764,0.044-1.452,0.044c-0.185,0-0.307-0.013-0.307-0.137c0-0.077,0.094-0.14,0.217-0.14
		c0.184,0,0.425-0.015,0.61-0.061c0.351-0.09,0.397-0.444,0.416-1.575l0.119-7.712c0-0.26,0.092-0.443,0.229-0.443
		c0.167,0,0.355,0.199,0.581,0.428c0.169,0.17,2.191,2.234,4.149,4.147c0.915,0.899,2.708,2.739,2.906,2.924h0.061L133.52,38.2
		c-0.013-0.799-0.135-1.027-0.461-1.15c-0.197-0.076-0.518-0.076-0.7-0.076c-0.167,0-0.215-0.062-0.215-0.139
		c0-0.105,0.138-0.121,0.338-0.121c0.7,0,1.421,0.031,1.713,0.031c0.153,0,0.656-0.031,1.315-0.031c0.185,0,0.305,0.016,0.305,0.121
		c0,0.077-0.075,0.139-0.228,0.139c-0.135,0-0.244,0-0.413,0.047c-0.368,0.107-0.472,0.335-0.49,1.073l-0.152,8.198
		c0,0.292-0.108,0.414-0.214,0.414c-0.232,0-0.415-0.138-0.553-0.273c-0.84-0.782-2.523-2.388-3.929-3.752
		c-1.471-1.404-2.894-2.985-3.154-3.213h-0.045L126.79,44.779z"/>
	<path fill="#144874" d="M138.849,46.383c-0.212-0.091-0.257-0.152-0.257-0.44c0-0.703,0.057-1.517,0.073-1.731
		c0-0.198,0.062-0.337,0.168-0.337c0.123,0,0.142,0.125,0.142,0.216c0,0.17,0.043,0.444,0.123,0.674
		c0.287,0.965,1.298,1.287,2.139,1.287c1.165,0,1.865-0.737,1.865-1.656c0-0.564-0.138-1.131-1.329-1.832l-0.78-0.459
		c-1.594-0.938-2.112-1.809-2.112-2.955c0-1.593,1.53-2.617,3.398-2.617c0.87,0,1.559,0.122,1.911,0.216
		c0.121,0.031,0.185,0.077,0.185,0.167c0,0.17-0.045,0.535-0.045,1.562c0,0.275-0.062,0.414-0.17,0.414
		c-0.093,0-0.139-0.076-0.139-0.229c0-0.121-0.061-0.521-0.354-0.857c-0.196-0.246-0.627-0.611-1.498-0.611
		c-0.964,0-1.837,0.508-1.837,1.392c0,0.581,0.213,1.044,1.425,1.714l0.549,0.306c1.774,0.979,2.325,1.976,2.325,3.152
		c0,0.965-0.366,1.745-1.346,2.435c-0.642,0.456-1.529,0.534-2.25,0.534C140.255,46.721,139.434,46.643,138.849,46.383z"/>
	<path fill="#144874" d="M150.067,41.061h0.062c0.457-0.491,2.418-2.419,2.815-2.859c0.382-0.432,0.675-0.736,0.675-0.967
		c0-0.139-0.063-0.229-0.187-0.261c-0.123-0.03-0.185-0.062-0.185-0.139c0-0.09,0.078-0.121,0.219-0.121
		c0.289,0,1.021,0.031,1.39,0.031c0.412,0,1.163-0.031,1.576-0.031c0.138,0,0.229,0.031,0.229,0.121
		c0,0.094-0.078,0.139-0.201,0.139c-0.198,0-0.537,0.063-0.778,0.154c-0.429,0.151-0.856,0.427-1.423,0.966
		c-0.43,0.397-2.432,2.294-2.846,2.767c0.474,0.613,3.121,3.366,3.642,3.856c0.596,0.538,1.114,1.101,1.837,1.391
		c0.396,0.169,0.675,0.169,0.824,0.169c0.104,0,0.186,0.062,0.186,0.14c0,0.093-0.08,0.137-0.322,0.137h-1.179
		c-0.397,0-0.644,0-0.933-0.029c-0.721-0.062-1.162-0.336-1.744-0.845c-0.582-0.503-3.166-3.5-3.46-3.897l-0.138-0.185h-0.061v1.176
		c0,1.196,0,2.225,0.029,2.788c0.031,0.366,0.156,0.611,0.488,0.671c0.185,0.031,0.49,0.046,0.66,0.046
		c0.107,0,0.185,0.078,0.185,0.14c0,0.093-0.108,0.137-0.263,0.137c-0.75,0-1.711-0.044-2.051-0.044
		c-0.304,0-1.16,0.044-1.697,0.044c-0.166,0-0.258-0.044-0.258-0.137c0-0.062,0.043-0.14,0.213-0.14
		c0.196,0,0.354-0.015,0.475-0.046c0.277-0.06,0.351-0.305,0.396-0.688c0.065-0.548,0.065-1.575,0.065-2.771v-2.294
		c0-1.973,0-2.34-0.019-2.753c-0.027-0.443-0.151-0.584-0.582-0.704c-0.104-0.027-0.336-0.047-0.533-0.047
		c-0.139,0-0.231-0.045-0.231-0.139c0-0.09,0.106-0.121,0.31-0.121c0.701,0,1.56,0.031,1.879,0.031c0.324,0,1.283-0.031,1.729-0.031
		c0.2,0,0.288,0.031,0.288,0.121c0,0.094-0.074,0.139-0.179,0.139c-0.142,0-0.218,0.02-0.388,0.047
		c-0.365,0.062-0.473,0.245-0.504,0.704c-0.015,0.413-0.015,0.78-0.015,2.753v0.582H150.067z"/>
	<path fill="#144874" d="M159.559,40.478c0-1.973,0-2.34-0.019-2.753c-0.028-0.443-0.151-0.584-0.582-0.704
		c-0.105-0.027-0.336-0.047-0.535-0.047c-0.135,0-0.23-0.045-0.23-0.139c0-0.09,0.109-0.121,0.309-0.121
		c0.705,0,1.561,0.031,1.942,0.031c0.431,0,3.413,0.015,3.675,0c0.244-0.017,0.457-0.062,0.563-0.076
		c0.077-0.018,0.155-0.063,0.215-0.063c0.076,0,0.091,0.063,0.091,0.124c0,0.094-0.076,0.244-0.105,0.844
		c-0.016,0.135-0.045,0.703-0.078,0.855c-0.014,0.062-0.045,0.213-0.149,0.213c-0.094,0-0.106-0.062-0.106-0.168
		c0-0.09-0.019-0.322-0.096-0.471c-0.107-0.233-0.215-0.416-0.887-0.478c-0.23-0.031-1.837-0.062-2.111-0.062
		c-0.059,0-0.091,0.045-0.091,0.123V40.8c0,0.077,0.015,0.139,0.091,0.139c0.31,0,2.049,0,2.357-0.03
		c0.318-0.03,0.521-0.062,0.641-0.196c0.108-0.094,0.154-0.172,0.217-0.172c0.062,0,0.108,0.061,0.108,0.14
		c0,0.074-0.032,0.291-0.108,0.945c-0.033,0.263-0.062,0.783-0.062,0.874c0,0.107-0.016,0.291-0.141,0.291
		c-0.09,0-0.122-0.044-0.122-0.108c-0.013-0.137-0.013-0.305-0.046-0.475c-0.076-0.261-0.244-0.458-0.75-0.503
		c-0.242-0.03-1.772-0.062-2.107-0.062c-0.062,0-0.076,0.062-0.076,0.14v1.04c0,0.442-0.019,1.546,0,1.929
		c0.031,0.886,0.44,1.086,1.82,1.086c0.354,0,0.919-0.018,1.268-0.17c0.338-0.151,0.49-0.426,0.582-0.965
		c0.03-0.137,0.062-0.197,0.152-0.197c0.109,0,0.124,0.169,0.124,0.306c0,0.291-0.106,1.181-0.185,1.439
		c-0.094,0.337-0.215,0.337-0.719,0.337c-1.01,0-1.82-0.016-2.478-0.045c-0.658-0.018-1.164-0.031-1.563-0.031
		c-0.15,0-0.443,0.015-0.764,0.015c-0.322,0.018-0.658,0.029-0.934,0.029c-0.17,0-0.26-0.044-0.26-0.137
		c0-0.062,0.047-0.14,0.213-0.14c0.198,0,0.353-0.015,0.476-0.046c0.274-0.06,0.351-0.305,0.396-0.688
		c0.065-0.548,0.065-1.575,0.065-2.771V40.478z"/>
	<path fill="#144874" d="M168.83,40.478c0-1.973,0-2.34-0.015-2.753c-0.032-0.443-0.155-0.584-0.578-0.704
		c-0.112-0.027-0.341-0.047-0.541-0.047c-0.137,0-0.229-0.045-0.229-0.139c0-0.09,0.105-0.121,0.309-0.121
		c0.703,0,1.682,0.031,2.034,0.031c0.319,0,1.177-0.031,1.715-0.031c0.181,0,0.274,0.031,0.274,0.121
		c0,0.094-0.074,0.139-0.248,0.139c-0.135,0-0.229,0.02-0.381,0.047c-0.367,0.062-0.475,0.245-0.504,0.704
		c-0.029,0.413-0.029,0.78-0.029,2.753v2.419c0,0.55,0.047,1.179,0.047,1.835c0,0.735-0.047,1.562-0.324,2.294
		c-0.289,0.8-1.115,1.716-2.417,2.479c-0.167,0.094-0.383,0.2-0.673,0.337c-0.094,0.048-0.217,0.062-0.277,0.062
		s-0.104-0.062-0.104-0.121c0-0.062,0.061-0.123,0.288-0.23c0.186-0.093,0.385-0.246,0.646-0.506
		c1.025-0.996,1.008-2.281,1.008-4.836V40.478L168.83,40.478z"/>
	<path fill="#144874" d="M180.781,40.49c0-1.979,0-2.342-0.023-2.758c-0.026-0.441-0.129-0.648-0.562-0.74
		c-0.104-0.026-0.324-0.038-0.505-0.038c-0.144,0-0.222-0.025-0.222-0.118c0-0.092,0.09-0.116,0.285-0.116
		c0.688,0,1.509,0.037,1.783,0.037c0.44,0,1.43-0.037,1.834-0.037c0.817,0,1.688,0.077,2.393,0.56
		c0.363,0.248,0.886,0.908,0.886,1.779c0,0.965-0.405,1.85-1.718,2.914c1.158,1.458,2.055,2.615,2.82,3.423
		c0.729,0.754,1.264,0.846,1.457,0.884c0.145,0.025,0.263,0.039,0.362,0.039c0.106,0,0.157,0.04,0.157,0.104
		c0,0.104-0.089,0.129-0.246,0.129h-1.234c-0.728,0-1.054-0.064-1.392-0.247c-0.562-0.297-1.056-0.909-1.783-1.913
		c-0.519-0.715-1.118-1.597-1.288-1.794c-0.062-0.076-0.143-0.091-0.232-0.091l-1.133-0.026c-0.064,0-0.104,0.026-0.104,0.105v0.183
		c0,1.209,0,2.234,0.067,2.784c0.037,0.376,0.115,0.661,0.508,0.715c0.195,0.024,0.48,0.051,0.636,0.051
		c0.104,0,0.155,0.04,0.155,0.104c0,0.093-0.092,0.129-0.26,0.129c-0.754,0-1.719-0.036-1.914-0.036
		c-0.245,0-1.064,0.036-1.588,0.036c-0.166,0-0.258-0.036-0.258-0.129c0-0.064,0.051-0.104,0.207-0.104
		c0.194,0,0.354-0.025,0.473-0.051c0.256-0.054,0.322-0.339,0.377-0.715c0.062-0.55,0.062-1.575,0.062-2.771L180.781,40.49
		L180.781,40.49z M182.315,41.518c0,0.146,0.026,0.194,0.118,0.235c0.273,0.09,0.663,0.13,0.988,0.13c0.52,0,0.69-0.053,0.925-0.221
		c0.389-0.287,0.771-0.888,0.771-1.951c0-1.849-1.226-2.38-1.994-2.38c-0.322,0-0.558,0.012-0.688,0.052
		c-0.091,0.025-0.118,0.078-0.118,0.183L182.315,41.518L182.315,41.518z"/>
	<path fill="#144874" d="M191.322,40.478c0-1.973,0-2.34-0.017-2.753c-0.028-0.443-0.151-0.584-0.578-0.704
		c-0.108-0.027-0.34-0.047-0.536-0.047c-0.141,0-0.23-0.045-0.23-0.139c0-0.09,0.106-0.121,0.309-0.121
		c0.7,0,1.559,0.031,1.939,0.031c0.429,0,3.412,0.015,3.672,0c0.248-0.017,0.459-0.062,0.568-0.076
		c0.076-0.018,0.15-0.063,0.211-0.063c0.079,0,0.094,0.063,0.094,0.124c0,0.094-0.078,0.244-0.105,0.844
		c-0.018,0.135-0.048,0.703-0.077,0.855c-0.017,0.062-0.045,0.213-0.151,0.213c-0.092,0-0.107-0.062-0.107-0.168
		c0-0.09-0.018-0.322-0.093-0.471c-0.104-0.233-0.216-0.416-0.886-0.478c-0.231-0.031-1.836-0.062-2.11-0.062
		c-0.063,0-0.095,0.045-0.095,0.123V40.8c0,0.077,0.016,0.139,0.095,0.139c0.305,0,2.048,0,2.354-0.03
		c0.322-0.03,0.519-0.062,0.642-0.196c0.108-0.094,0.153-0.172,0.213-0.172c0.062,0,0.104,0.061,0.104,0.14
		c0,0.074-0.025,0.291-0.104,0.945c-0.026,0.263-0.06,0.783-0.06,0.874c0,0.107-0.016,0.291-0.137,0.291
		c-0.093,0-0.122-0.044-0.122-0.108c-0.019-0.137-0.019-0.305-0.046-0.475c-0.079-0.261-0.248-0.458-0.753-0.503
		c-0.244-0.03-1.774-0.062-2.112-0.062c-0.06,0-0.074,0.062-0.074,0.14v1.04c0,0.442-0.015,1.546,0,1.929
		c0.031,0.886,0.444,1.086,1.822,1.086c0.35,0,0.916-0.018,1.269-0.17c0.336-0.151,0.491-0.426,0.581-0.965
		c0.031-0.137,0.062-0.197,0.152-0.197c0.105,0,0.125,0.169,0.125,0.306c0,0.291-0.109,1.181-0.188,1.439
		c-0.09,0.337-0.215,0.337-0.719,0.337c-1.008,0-1.82-0.016-2.477-0.045c-0.658-0.018-1.165-0.031-1.561-0.031
		c-0.153,0-0.447,0.015-0.769,0.015c-0.319,0.018-0.655,0.029-0.931,0.029c-0.168,0-0.264-0.044-0.264-0.137
		c0-0.062,0.047-0.14,0.215-0.14c0.197,0,0.353-0.015,0.476-0.046c0.274-0.06,0.353-0.305,0.396-0.688
		c0.062-0.548,0.062-1.575,0.062-2.771v-2.295H191.322z"/>
	<path fill="#144874" d="M200.597,40.478c0-1.973,0-2.34-0.016-2.753c-0.031-0.443-0.149-0.584-0.584-0.704
		c-0.105-0.027-0.336-0.047-0.533-0.047c-0.139,0-0.229-0.045-0.229-0.139c0-0.09,0.104-0.121,0.307-0.121
		c0.701,0,1.562,0.031,1.938,0.031c0.554,0,1.627-0.031,2.238-0.031c1.68,0,2.292,0.552,2.508,0.733
		c0.289,0.276,0.671,0.856,0.671,1.562c0,1.834-1.466,3.151-3.382,3.151c-0.06,0-0.337,0-0.396-0.017
		c-0.076,0-0.17-0.044-0.17-0.138c0-0.107,0.156-0.167,0.445-0.167c0.749,0,1.805-0.781,1.805-2.113
		c0-0.429-0.047-1.285-0.796-1.928c-0.489-0.428-1.04-0.49-1.351-0.49c-0.193,0-0.455,0.019-0.576,0.062
		c-0.076,0.028-0.105,0.104-0.105,0.244v5.153c0,1.196,0,2.225,0.057,2.788c0.05,0.366,0.124,0.611,0.521,0.671
		c0.201,0.031,0.49,0.046,0.688,0.046c0.153,0,0.214,0.078,0.214,0.14c0,0.093-0.107,0.137-0.242,0.137
		c-0.906,0-1.854-0.044-2.205-0.044c-0.304,0-1.162,0.044-1.697,0.044c-0.166,0-0.26-0.044-0.26-0.137
		c0-0.062,0.045-0.14,0.213-0.14c0.198,0,0.354-0.015,0.474-0.046c0.276-0.06,0.354-0.305,0.399-0.688
		c0.062-0.548,0.062-1.575,0.062-2.771L200.597,40.478L200.597,40.478z"/>
	<path fill="#144874" d="M209.886,40.478c0-1.973,0.017-2.34-0.016-2.753c-0.031-0.459-0.149-0.584-0.58-0.704
		c-0.105-0.027-0.336-0.047-0.521-0.047c-0.152,0-0.229-0.045-0.229-0.139c0-0.09,0.09-0.121,0.291-0.121
		c0.719,0,1.623,0.031,2.021,0.031c0.337,0,1.237-0.031,1.726-0.031c0.199,0,0.293,0.031,0.293,0.121
		c0,0.094-0.078,0.139-0.215,0.139c-0.154,0-0.228,0.02-0.396,0.047c-0.354,0.062-0.46,0.245-0.493,0.704
		c-0.028,0.413-0.028,0.78-0.028,2.753V42.3c0,1.896,0.367,2.632,1.027,3.152c0.595,0.474,1.233,0.521,1.696,0.521
		c0.582,0,1.27-0.174,1.805-0.689c0.75-0.703,0.779-1.838,0.779-3.167v-1.64c0-1.973-0.014-2.34-0.029-2.753
		c-0.029-0.444-0.139-0.584-0.564-0.704c-0.107-0.027-0.338-0.047-0.492-0.047c-0.151,0-0.229-0.045-0.229-0.139
		c0-0.09,0.094-0.121,0.273-0.121c0.689,0,1.594,0.031,1.606,0.031c0.155,0,1.056-0.031,1.579-0.031
		c0.182,0,0.271,0.031,0.271,0.121c0,0.094-0.078,0.139-0.229,0.139c-0.153,0-0.229,0.02-0.399,0.047
		c-0.365,0.062-0.457,0.245-0.485,0.704c-0.019,0.413-0.032,0.78-0.032,2.753v1.393c0,1.454-0.152,2.985-1.283,3.92
		c-0.951,0.795-1.978,0.932-2.846,0.932c-0.705,0-2.1-0.031-3.078-0.887c-0.688-0.597-1.225-1.562-1.225-3.443v-1.913H209.886z"/>
	<path fill="#144874" d="M222.555,40.478c0-1.973,0-2.34-0.013-2.753c-0.031-0.443-0.153-0.584-0.58-0.704
		c-0.107-0.027-0.338-0.047-0.533-0.047c-0.141,0-0.233-0.045-0.233-0.139c0-0.09,0.108-0.121,0.306-0.121
		c0.703,0,1.562,0.031,1.824,0.031c0.67,0,1.559-0.031,2.019-0.031c2.432,0,2.86,1.255,2.86,1.944c0,1.011-0.748,1.789-1.514,2.279
		c1.1,0.353,2.477,1.283,2.477,2.813c0,1.395-1.102,2.832-3.58,2.832c-0.151,0-0.609-0.016-1.068-0.045
		c-0.462-0.018-0.936-0.031-1.148-0.031c-0.154,0-0.445,0.015-0.765,0.015c-0.324,0.018-0.659,0.029-0.935,0.029
		c-0.17,0-0.262-0.044-0.262-0.137c0-0.062,0.049-0.14,0.217-0.14c0.196,0,0.353-0.015,0.476-0.046
		c0.274-0.06,0.351-0.305,0.396-0.688c0.059-0.548,0.059-1.575,0.059-2.771L222.555,40.478L222.555,40.478z M224.306,40.692
		c0,0.107,0.045,0.122,0.09,0.141c0.122,0.027,0.318,0.045,0.628,0.045c0.438,0,0.824-0.045,1.054-0.229
		c0.352-0.275,0.613-0.75,0.613-1.379c0-0.871-0.521-1.959-1.686-1.959c-0.184,0-0.441,0-0.582,0.032
		c-0.09,0.013-0.117,0.076-0.117,0.212V40.692z M224.306,44.519c0,0.857,0.045,1.115,0.47,1.281
		c0.353,0.143,0.659,0.157,0.964,0.157c0.723,0,1.652-0.397,1.652-1.838c0-0.597-0.258-1.621-1.266-2.309
		c-0.278-0.199-0.646-0.338-1.168-0.338h-0.58c-0.045,0-0.072,0.013-0.072,0.094V44.519L224.306,44.519z"/>
	<path fill="#144874" d="M234.298,42.771c0,1.668,0,2.497,0.287,2.741c0.23,0.197,0.75,0.276,1.789,0.276
		c0.721,0,1.242-0.019,1.578-0.367c0.166-0.167,0.307-0.536,0.338-0.781c0.012-0.122,0.045-0.201,0.151-0.201
		c0.093,0,0.123,0.142,0.123,0.292c0,0.154-0.095,1.116-0.2,1.499c-0.089,0.292-0.152,0.354-0.857,0.354
		c-0.965,0-1.742-0.016-2.416-0.045c-0.676-0.018-1.238-0.031-1.791-0.031c-0.151,0-0.442,0.015-0.764,0.015
		c-0.322,0.018-0.658,0.029-0.934,0.029c-0.169,0-0.262-0.044-0.262-0.137c0-0.062,0.048-0.14,0.215-0.14
		c0.197,0,0.354-0.015,0.473-0.046c0.278-0.06,0.354-0.305,0.396-0.688c0.062-0.548,0.062-1.575,0.062-2.771v-2.294
		c0-1.973,0-2.34-0.014-2.753c-0.033-0.444-0.154-0.584-0.582-0.704c-0.107-0.027-0.273-0.047-0.441-0.047
		c-0.154,0-0.231-0.045-0.231-0.139c0-0.09,0.093-0.121,0.292-0.121c0.627,0,1.48,0.031,1.85,0.031c0.324,0,1.424-0.031,1.942-0.031
		c0.2,0,0.294,0.031,0.294,0.121c0,0.094-0.078,0.139-0.246,0.139c-0.154,0-0.368,0.02-0.521,0.047
		c-0.367,0.062-0.474,0.245-0.506,0.704c-0.027,0.413-0.027,0.78-0.027,2.753v2.294H234.298z"/>
	<path fill="#144874" d="M241.703,40.478c0-1.973,0-2.34-0.016-2.753c-0.029-0.443-0.168-0.597-0.461-0.688
		c-0.153-0.045-0.32-0.063-0.488-0.063c-0.139,0-0.214-0.03-0.214-0.15c0-0.077,0.106-0.108,0.32-0.108
		c0.504,0,1.425,0.031,1.807,0.031c0.337,0,1.209-0.031,1.729-0.031c0.168,0,0.274,0.031,0.274,0.108c0,0.12-0.077,0.15-0.213,0.15
		c-0.139,0-0.247,0.02-0.397,0.047c-0.369,0.062-0.475,0.245-0.504,0.704c-0.033,0.413-0.033,0.78-0.033,2.753v2.294
		c0,1.257,0,2.297,0.062,2.849c0.044,0.354,0.139,0.552,0.535,0.61c0.186,0.031,0.489,0.046,0.689,0.046
		c0.15,0,0.213,0.078,0.213,0.14c0,0.093-0.106,0.137-0.262,0.137c-0.887,0-1.805-0.044-2.17-0.044
		c-0.308,0-1.229,0.044-1.763,0.044c-0.168,0-0.261-0.044-0.261-0.137c0-0.062,0.046-0.14,0.216-0.14
		c0.198,0,0.349-0.015,0.474-0.046c0.276-0.06,0.355-0.243,0.396-0.625c0.062-0.537,0.062-1.577,0.062-2.834v-2.294H241.703z"/>
	<path fill="#144874" d="M250.457,41.061h0.062c0.458-0.491,2.414-2.419,2.814-2.859c0.381-0.432,0.674-0.736,0.674-0.967
		c0-0.139-0.062-0.229-0.186-0.261c-0.123-0.03-0.183-0.062-0.183-0.139c0-0.09,0.073-0.121,0.214-0.121
		c0.292,0,1.021,0.031,1.395,0.031c0.41,0,1.16-0.031,1.573-0.031c0.138,0,0.229,0.031,0.229,0.121c0,0.094-0.077,0.139-0.198,0.139
		c-0.199,0-0.535,0.063-0.778,0.154c-0.43,0.151-0.859,0.427-1.425,0.966c-0.427,0.397-2.435,2.294-2.848,2.767
		c0.474,0.613,3.12,3.366,3.643,3.856c0.601,0.538,1.116,1.101,1.837,1.391c0.397,0.169,0.674,0.169,0.824,0.169
		c0.107,0,0.184,0.062,0.184,0.14c0,0.093-0.076,0.137-0.318,0.137h-1.18c-0.397,0-0.643,0-0.932-0.029
		c-0.721-0.062-1.164-0.336-1.744-0.845c-0.582-0.503-3.169-3.5-3.46-3.897l-0.136-0.185h-0.062v1.176c0,1.196,0,2.225,0.03,2.788
		c0.032,0.366,0.154,0.611,0.49,0.671c0.183,0.031,0.487,0.046,0.657,0.046c0.105,0,0.183,0.078,0.183,0.14
		c0,0.093-0.104,0.137-0.258,0.137c-0.751,0-1.714-0.044-2.052-0.044c-0.305,0-1.162,0.044-1.698,0.044
		c-0.167,0-0.259-0.044-0.259-0.137c0-0.062,0.045-0.14,0.215-0.14c0.199,0,0.35-0.015,0.475-0.046
		c0.273-0.06,0.352-0.305,0.398-0.688c0.061-0.548,0.061-1.575,0.061-2.771v-2.294c0-1.973,0-2.34-0.016-2.753
		c-0.03-0.443-0.153-0.584-0.585-0.704c-0.106-0.027-0.333-0.047-0.531-0.047c-0.14,0-0.229-0.045-0.229-0.139
		c0-0.09,0.104-0.121,0.306-0.121c0.703,0,1.562,0.031,1.88,0.031c0.323,0,1.286-0.031,1.73-0.031c0.199,0,0.289,0.031,0.289,0.121
		c0,0.094-0.078,0.139-0.185,0.139c-0.137,0-0.212,0.02-0.381,0.047c-0.367,0.062-0.476,0.245-0.505,0.704
		c-0.018,0.413-0.018,0.78-0.018,2.753v0.582H250.457z"/>
	<path fill="#144874" d="M261.382,43.172c0-0.704-0.118-0.979-0.305-1.36c-0.093-0.199-1.928-3.062-2.402-3.751
		c-0.336-0.474-0.611-0.779-0.871-0.92c-0.172-0.091-0.397-0.167-0.564-0.167c-0.109,0-0.201-0.045-0.201-0.139
		c0-0.09,0.092-0.121,0.262-0.121c0.229,0,1.24,0.031,1.681,0.031c0.293,0,0.921-0.031,1.532-0.031c0.124,0,0.195,0.031,0.195,0.121
		c0,0.107-0.09,0.107-0.301,0.171c-0.107,0.031-0.185,0.09-0.185,0.198c0,0.105,0.06,0.26,0.166,0.443
		c0.247,0.396,2.006,3.441,2.233,3.809c0.17-0.306,1.805-3.088,2.002-3.487c0.14-0.288,0.201-0.521,0.201-0.688
		c0-0.121-0.062-0.243-0.291-0.288c-0.123-0.032-0.244-0.05-0.244-0.157c0-0.09,0.074-0.121,0.229-0.121
		c0.444,0,0.918,0.031,1.313,0.031c0.293,0,1.182-0.031,1.44-0.031c0.151,0,0.244,0.031,0.244,0.108c0,0.09-0.106,0.15-0.263,0.15
		c-0.133,0-0.379,0.063-0.58,0.154c-0.289,0.138-0.411,0.261-0.7,0.609c-0.444,0.524-2.371,3.61-2.617,4.163
		c-0.202,0.476-0.17,0.87-0.17,1.303v1.039c0,0.214,0,0.753,0.03,1.301c0.031,0.383,0.152,0.628,0.552,0.688
		c0.198,0.031,0.49,0.046,0.674,0.046c0.152,0,0.232,0.078,0.232,0.14c0,0.093-0.111,0.137-0.296,0.137
		c-0.84,0-1.743-0.044-2.11-0.044c-0.336,0-1.239,0.044-1.745,0.044c-0.182,0-0.288-0.029-0.288-0.137
		c0-0.062,0.062-0.14,0.216-0.14c0.184,0,0.352-0.015,0.471-0.046c0.277-0.06,0.386-0.305,0.414-0.688
		c0.045-0.548,0.045-1.087,0.045-1.301V43.172L261.382,43.172z"/>
	<g>
		<path fill="#144874" d="M97.606,23.299c-0.118,0-0.141,0.021-0.187,0.141l-1.087,2.635c-0.207,0.482-0.298,0.967-0.298,1.198
			c0,0.347,0.184,0.556,0.806,0.556h0.302c0.254,0,0.299,0.093,0.299,0.208c0,0.16-0.116,0.208-0.325,0.208
			c-0.669,0-1.614-0.07-2.26-0.07c-0.208,0-1.295,0.07-2.357,0.07c-0.257,0-0.37-0.048-0.37-0.208c0-0.116,0.067-0.208,0.23-0.208
			c0.185,0,0.415-0.023,0.601-0.023c0.922-0.138,1.271-0.741,1.688-1.729l5.313-12.357c0.231-0.554,0.394-0.785,0.6-0.785
			c0.302,0,0.394,0.184,0.604,0.622c0.484,1.083,3.88,9.123,5.175,12.104c0.786,1.778,1.364,2.032,1.734,2.104
			c0.3,0.044,0.531,0.067,0.762,0.067c0.184,0,0.277,0.069,0.277,0.208c0,0.161-0.115,0.208-0.879,0.208
			c-0.715,0-2.192,0-3.902-0.047c-0.372-0.022-0.602-0.022-0.602-0.161c0-0.116,0.045-0.188,0.253-0.208
			c0.141-0.023,0.275-0.208,0.185-0.439l-1.57-3.948c-0.045-0.118-0.116-0.141-0.208-0.141h-4.784V23.299z M101.95,22.214
			c0.093,0,0.116-0.045,0.093-0.114l-1.918-4.99c-0.025-0.066-0.049-0.186-0.095-0.186c-0.069,0-0.091,0.119-0.116,0.186
			l-1.962,4.968c-0.048,0.092,0,0.137,0.068,0.137H101.95z M104.537,9.699c0.138,0.274,0,0.347-0.116,0.347
			c-0.115,0-0.321-0.045-0.786,0c-1.271,0.16-3.096,0.897-3.95,1.36c-0.184,0.096-0.347,0.186-0.394,0.186s-0.138-0.045-0.138-0.138
			c0-0.094,0.091-0.186,0.206-0.301c0.925-0.88,3.354-2.678,3.723-2.909c0.231-0.164,0.392-0.208,0.46-0.208
			c0.163,0,0.208,0.07,0.324,0.275C104.053,8.634,104.258,9.074,104.537,9.699z"/>
		<path fill="#144874" d="M111.336,19.072c0-2.976,0-3.533-0.022-4.155c-0.046-0.67-0.231-0.879-0.881-1.062
			c-0.162-0.045-0.507-0.069-0.807-0.069c-0.209,0-0.347-0.068-0.347-0.208c0-0.139,0.162-0.187,0.46-0.187
			c1.066,0,2.358,0.047,2.775,0.047c0.693,0,2.541-0.047,3.165-0.047c1.296,0,2.774,0.118,3.858,0.833
			c0.58,0.393,1.435,1.386,1.435,2.7c0,1.456-0.83,2.748-2.82,4.345c1.805,2.216,3.236,3.996,4.462,5.218
			c1.132,1.133,1.846,1.226,2.172,1.296c0.208,0.045,0.321,0.045,0.481,0.045c0.167,0,0.256,0.115,0.256,0.208
			c0,0.16-0.141,0.208-0.395,0.208h-1.939c-1.132,0-1.688-0.115-2.218-0.396c-0.877-0.436-1.64-1.362-2.776-2.885
			c-0.806-1.062-1.661-2.38-1.917-2.681c-0.115-0.113-0.231-0.137-0.368-0.137l-1.826-0.047c-0.095,0-0.164,0.047-0.164,0.161v0.278
			c0,1.823,0.024,3.348,0.119,4.179c0.067,0.577,0.161,0.948,0.786,1.042c0.298,0.044,0.738,0.067,0.995,0.067
			c0.16,0,0.252,0.115,0.252,0.208c0,0.138-0.162,0.208-0.416,0.208c-1.181,0-2.865-0.07-3.166-0.07c-0.394,0-1.686,0.07-2.496,0.07
			c-0.256,0-0.394-0.07-0.394-0.208c0-0.094,0.069-0.208,0.324-0.208c0.299,0,0.533-0.023,0.716-0.067
			c0.417-0.093,0.533-0.465,0.602-1.042c0.093-0.832,0.093-2.377,0.093-4.179L111.336,19.072L111.336,19.072z M113.922,20.597
			c0,0.21,0.047,0.278,0.186,0.348c0.439,0.14,1.04,0.187,1.55,0.187c0.808,0,1.085-0.07,1.43-0.324
			c0.625-0.438,1.321-1.295,1.321-2.911c0-2.771-1.897-3.485-3.096-3.485c-0.512,0-0.996,0.021-1.205,0.066
			c-0.139,0.047-0.186,0.115-0.186,0.279V20.597z"/>
		<path fill="#144874" d="M124.883,20.807c0-3.348,2.354-7.692,8.523-7.692c5.131,0,8.321,2.844,8.321,7.344
			c0,4.505-3.28,8.038-8.527,8.038C127.285,28.497,124.883,24.293,124.883,20.807z M138.701,21.176c0-4.342-2.611-7.02-5.894-7.02
			c-2.263,0-4.922,1.199-4.922,6.048c0,4.043,2.309,7.23,6.148,7.23C135.464,27.436,138.701,26.765,138.701,21.176z"/>
		<path fill="#144874" d="M145.544,19.072c0-2.976,0-3.533-0.021-4.155c-0.046-0.67-0.232-0.879-0.879-1.062
			c-0.16-0.045-0.512-0.069-0.809-0.069c-0.211,0-0.349-0.068-0.349-0.208c0-0.139,0.162-0.187,0.464-0.187
			c1.062,0,2.355,0.047,2.936,0.047c0.621,0,2.078-0.047,3.306-0.047c2.54,0,5.959,0,8.181,2.244
			c1.015,1.013,1.916,2.655,1.916,4.986c0,2.474-1.062,4.343-2.219,5.475c-0.924,0.923-3.07,2.309-6.816,2.309
			c-0.739,0-1.619-0.069-2.426-0.114c-0.811-0.068-1.548-0.115-2.057-0.115c-0.232,0-0.672,0.021-1.154,0.021
			c-0.486,0.025-0.994,0.048-1.408,0.048c-0.258,0-0.396-0.07-0.396-0.208c0-0.094,0.067-0.208,0.319-0.208
			c0.306,0,0.533-0.023,0.722-0.067c0.414-0.093,0.53-0.465,0.599-1.042c0.094-0.832,0.094-2.377,0.094-4.179v-3.468H145.544z
			 M148.272,21.244c0,2.077,0.022,3.582,0.046,3.973c0.021,0.485,0.069,1.177,0.232,1.386c0.254,0.372,1.059,0.785,2.656,0.785
			c1.848,0,3.213-0.324,4.438-1.337c1.314-1.086,1.732-2.841,1.732-4.875c0-2.495-0.994-4.111-1.896-4.897
			c-1.873-1.663-4.088-1.868-5.685-1.868c-0.418,0-1.086,0.044-1.245,0.138c-0.188,0.068-0.257,0.164-0.257,0.392
			c-0.022,0.67-0.022,2.287-0.022,3.835V21.244L148.272,21.244z"/>
		<path fill="#144874" d="M165.792,25.566c0.047,1.523,0.301,1.985,0.692,2.123c0.347,0.115,0.741,0.139,1.065,0.139
			c0.229,0,0.345,0.093,0.345,0.208c0,0.16-0.185,0.208-0.46,0.208c-1.316,0-2.268-0.07-2.639-0.07c-0.182,0-1.152,0.07-2.193,0.07
			c-0.275,0-0.463-0.022-0.463-0.208c0-0.116,0.139-0.208,0.326-0.208c0.273,0,0.646-0.023,0.922-0.091
			c0.531-0.141,0.604-0.673,0.625-2.382l0.185-11.638c0-0.394,0.138-0.67,0.347-0.67c0.254,0,0.531,0.298,0.881,0.645
			c0.253,0.257,3.303,3.373,6.261,6.263c1.388,1.359,4.09,4.133,4.392,4.408h0.094l-0.211-8.729
			c-0.022-1.203-0.207-1.549-0.691-1.735c-0.301-0.114-0.784-0.114-1.064-0.114c-0.252,0-0.322-0.094-0.322-0.208
			c0-0.161,0.209-0.187,0.511-0.187c1.063,0,2.147,0.047,2.586,0.047c0.229,0,0.995-0.047,1.989-0.047
			c0.275,0,0.462,0.025,0.462,0.187c0,0.115-0.117,0.208-0.347,0.208c-0.211,0-0.369,0-0.623,0.069
			c-0.559,0.16-0.721,0.507-0.742,1.616l-0.231,12.378c0,0.44-0.159,0.625-0.321,0.625c-0.348,0-0.625-0.208-0.832-0.416
			c-1.271-1.178-3.812-3.603-5.939-5.66c-2.221-2.124-4.365-4.502-4.76-4.849h-0.068L165.792,25.566z"/>
		<path fill="#144874" d="M184.841,23.299c-0.116,0-0.139,0.021-0.188,0.141l-1.086,2.635c-0.209,0.482-0.3,0.967-0.3,1.198
			c0,0.347,0.185,0.556,0.81,0.556h0.297c0.258,0,0.306,0.093,0.306,0.208c0,0.16-0.118,0.208-0.327,0.208
			c-0.668,0-1.613-0.07-2.262-0.07c-0.209,0-1.295,0.07-2.359,0.07c-0.253,0-0.371-0.048-0.371-0.208
			c0-0.116,0.073-0.208,0.233-0.208c0.188,0,0.415-0.023,0.602-0.023c0.927-0.138,1.272-0.741,1.687-1.729l5.316-12.357
			c0.229-0.554,0.393-0.785,0.6-0.785c0.301,0,0.391,0.184,0.603,0.622c0.483,1.083,3.882,9.123,5.177,12.104
			c0.785,1.778,1.361,2.032,1.733,2.104c0.298,0.044,0.532,0.067,0.761,0.067c0.184,0,0.276,0.069,0.276,0.208
			c0,0.161-0.116,0.208-0.877,0.208c-0.718,0-2.197,0-3.903-0.047c-0.369-0.022-0.604-0.022-0.604-0.161
			c0-0.116,0.045-0.188,0.255-0.208c0.138-0.023,0.276-0.208,0.186-0.439l-1.573-3.948c-0.045-0.118-0.115-0.141-0.209-0.141h-4.781
			V23.299z M189.183,22.214c0.095,0,0.117-0.045,0.095-0.114l-1.919-4.99c-0.025-0.066-0.048-0.186-0.093-0.186
			c-0.067,0-0.089,0.119-0.116,0.186l-1.962,4.968c-0.047,0.092,0,0.137,0.067,0.137H189.183z M191.77,9.699
			c0.142,0.274,0,0.347-0.11,0.347c-0.117,0-0.324-0.045-0.789,0c-1.271,0.16-3.096,0.897-3.951,1.36
			c-0.185,0.096-0.344,0.186-0.393,0.186c-0.046,0-0.139-0.045-0.139-0.138c0-0.094,0.093-0.186,0.209-0.301
			c0.923-0.88,3.351-2.678,3.72-2.909c0.231-0.164,0.394-0.208,0.464-0.208c0.16,0,0.204,0.07,0.32,0.275
			C191.287,8.634,191.494,9.074,191.77,9.699z"/>
		<path fill="#144874" d="M205.503,19.072c0-2.976,0-3.533-0.021-4.155c-0.048-0.67-0.232-0.879-0.879-1.062
			c-0.161-0.045-0.509-0.069-0.807-0.069c-0.213,0-0.351-0.068-0.351-0.208c0-0.139,0.16-0.187,0.466-0.187
			c1.061,0,2.354,0.047,2.769,0.047c0.694,0,2.541-0.047,3.168-0.047c1.294,0,2.774,0.118,3.856,0.833
			c0.58,0.393,1.434,1.386,1.434,2.7c0,1.456-0.831,2.748-2.818,4.345c1.805,2.216,3.237,3.996,4.459,5.218
			c1.133,1.133,1.854,1.226,2.174,1.296c0.211,0.045,0.323,0.045,0.485,0.045c0.161,0,0.253,0.115,0.253,0.208
			c0,0.16-0.138,0.208-0.391,0.208h-1.942c-1.131,0-1.687-0.115-2.22-0.396c-0.879-0.436-1.641-1.362-2.771-2.885
			c-0.809-1.062-1.664-2.38-1.92-2.681c-0.113-0.113-0.23-0.137-0.369-0.137l-1.824-0.047c-0.092,0-0.162,0.047-0.162,0.161v0.278
			c0,1.823,0.021,3.348,0.115,4.179c0.069,0.577,0.162,0.948,0.782,1.042c0.306,0.044,0.743,0.067,0.996,0.067
			c0.164,0,0.254,0.115,0.254,0.208c0,0.138-0.161,0.208-0.413,0.208c-1.179,0-2.869-0.07-3.168-0.07
			c-0.393,0-1.687,0.07-2.494,0.07c-0.252,0-0.395-0.07-0.395-0.208c0-0.094,0.07-0.208,0.324-0.208c0.3,0,0.531-0.023,0.716-0.067
			c0.416-0.093,0.53-0.465,0.603-1.042c0.09-0.832,0.09-2.377,0.09-4.179v-3.466H205.503z M208.091,20.597
			c0,0.21,0.048,0.278,0.187,0.348c0.438,0.14,1.041,0.187,1.55,0.187c0.807,0,1.082-0.07,1.432-0.324
			c0.625-0.438,1.314-1.295,1.314-2.911c0-2.771-1.894-3.485-3.096-3.485c-0.509,0-0.991,0.021-1.2,0.066
			c-0.139,0.047-0.187,0.115-0.187,0.279V20.597L208.091,20.597z"/>
		<path fill="#144874" d="M222.237,23.299c-0.114,0-0.137,0.021-0.185,0.141l-1.086,2.635c-0.209,0.482-0.299,0.967-0.299,1.198
			c0,0.347,0.185,0.556,0.809,0.556h0.299c0.255,0,0.303,0.093,0.303,0.208c0,0.16-0.115,0.208-0.324,0.208
			c-0.67,0-1.615-0.07-2.266-0.07c-0.209,0-1.294,0.07-2.355,0.07c-0.256,0-0.371-0.048-0.371-0.208c0-0.116,0.07-0.208,0.232-0.208
			c0.184,0,0.414-0.023,0.601-0.023c0.925-0.138,1.271-0.741,1.686-1.729l5.314-12.357c0.231-0.554,0.394-0.785,0.603-0.785
			c0.301,0,0.395,0.184,0.602,0.622c0.483,1.083,3.881,9.123,5.178,12.104c0.785,1.778,1.363,2.032,1.732,2.104
			c0.297,0.044,0.529,0.067,0.762,0.067c0.185,0,0.279,0.069,0.279,0.208c0,0.161-0.119,0.208-0.881,0.208
			c-0.717,0-2.195,0-3.904-0.047c-0.371-0.022-0.602-0.022-0.602-0.161c0-0.116,0.044-0.188,0.256-0.208
			c0.139-0.023,0.276-0.208,0.184-0.439l-1.569-3.948c-0.045-0.118-0.117-0.141-0.21-0.141h-4.786V23.299z M226.585,22.214
			c0.09,0,0.111-0.045,0.09-0.114l-1.918-4.99c-0.024-0.066-0.047-0.186-0.092-0.186c-0.071,0-0.094,0.119-0.115,0.186l-1.965,4.968
			c-0.049,0.092,0,0.137,0.067,0.137H226.585z"/>
		<path fill="#144874" d="M235.968,19.072c0-2.976,0-3.533-0.022-4.155c-0.044-0.67-0.231-0.879-0.88-1.062
			c-0.16-0.045-0.507-0.069-0.807-0.069c-0.209,0-0.348-0.068-0.348-0.208c0-0.139,0.16-0.187,0.463-0.187
			c1.062,0,2.355,0.047,2.937,0.047c0.622,0,2.078-0.047,3.303-0.047c2.542,0,5.962,0,8.181,2.244
			c1.017,1.013,1.918,2.655,1.918,4.986c0,2.474-1.062,4.343-2.219,5.475c-0.924,0.923-3.07,2.309-6.816,2.309
			c-0.739,0-1.619-0.069-2.426-0.114c-0.811-0.068-1.549-0.115-2.056-0.115c-0.233,0-0.676,0.021-1.157,0.021
			c-0.484,0.025-0.994,0.048-1.408,0.048c-0.254,0-0.394-0.07-0.394-0.208c0-0.094,0.068-0.208,0.322-0.208
			c0.3,0,0.53-0.023,0.719-0.067c0.414-0.093,0.529-0.465,0.599-1.042c0.093-0.832,0.093-2.377,0.093-4.179L235.968,19.072
			L235.968,19.072z M238.695,21.244c0,2.077,0.021,3.582,0.045,3.973c0.023,0.485,0.068,1.177,0.234,1.386
			c0.253,0.372,1.061,0.785,2.654,0.785c1.85,0,3.213-0.324,4.438-1.337c1.318-1.086,1.732-2.841,1.732-4.875
			c0-2.495-0.99-4.111-1.896-4.897c-1.87-1.663-4.088-1.868-5.684-1.868c-0.417,0-1.087,0.044-1.246,0.138
			c-0.188,0.068-0.257,0.164-0.257,0.392c-0.022,0.67-0.022,2.287-0.022,3.835L238.695,21.244L238.695,21.244z"/>
		<path fill="#144874" d="M256.055,23.299c-0.116,0-0.142,0.021-0.187,0.141l-1.086,2.635c-0.209,0.482-0.301,0.967-0.301,1.198
			c0,0.347,0.188,0.556,0.811,0.556h0.299c0.256,0,0.3,0.093,0.3,0.208c0,0.16-0.115,0.208-0.322,0.208
			c-0.667,0-1.616-0.07-2.264-0.07c-0.209,0-1.296,0.07-2.356,0.07c-0.254,0-0.369-0.048-0.369-0.208
			c0-0.116,0.068-0.208,0.229-0.208c0.188,0,0.42-0.023,0.604-0.023c0.926-0.138,1.271-0.741,1.687-1.729l5.315-12.357
			c0.23-0.554,0.393-0.785,0.601-0.785c0.303,0,0.396,0.184,0.603,0.622c0.485,1.083,3.881,9.123,5.178,12.104
			c0.783,1.778,1.36,2.032,1.73,2.104c0.299,0.044,0.532,0.067,0.764,0.067c0.183,0,0.274,0.069,0.274,0.208
			c0,0.161-0.115,0.208-0.877,0.208c-0.714,0-2.192,0-3.906-0.047c-0.368-0.022-0.6-0.022-0.6-0.161c0-0.116,0.05-0.188,0.252-0.208
			c0.142-0.023,0.28-0.208,0.188-0.439l-1.57-3.948c-0.049-0.118-0.117-0.141-0.209-0.141h-4.786V23.299z M260.397,22.214
			c0.093,0,0.115-0.045,0.093-0.114l-1.917-4.99c-0.022-0.066-0.046-0.186-0.091-0.186c-0.07,0-0.093,0.119-0.115,0.186
			l-1.966,4.968c-0.044,0.092,0,0.137,0.071,0.137H260.397z"/>
		<path fill="#144874" d="M91.499,10.783c-1.133,0-2.011,0.066-2.265,0.066c-0.486,0-1.594-0.066-2.797-0.066
			c-0.345,0-0.598,0.021-0.598,0.208c0,0.138,0.09,0.208,0.368,0.208c0.323,0,0.878,0,1.224,0.137
			c0.554,0.229,0.763,0.67,0.786,2.079l0.231,10.371h-0.116c-0.392-0.373-3.511-3.695-5.084-5.268
			c-0.536-0.532-1.076-1.077-1.606-1.615l0,0c0,0-0.002-0.003-0.004-0.005c0,0-0.005-0.005-0.008-0.008l0,0
			c-2.19-2.109-4.574-4.859-5.834-6.018c-0.257-0.249-0.54-0.498-0.793-0.494c-0.208,0.004-0.299,0.212-0.29,0.721l0.01,13.732
			v0.014c-0.022,2.011-0.116,2.682-0.716,2.864c-0.322,0.092-0.739,0.115-1.04,0.115c-0.231,0-0.368,0.048-0.368,0.186
			c0,0.208,0.208,0.23,0.506,0.23c1.203,0,2.287-0.07,2.496-0.07c0.439,0,1.365,0.07,2.869,0.07c0.32,0,0.53-0.048,0.53-0.23
			c0-0.138-0.139-0.186-0.393-0.186c-0.37,0-0.807-0.023-1.201-0.161c-0.462-0.164-0.764-0.764-0.81-2.565l-0.253-9.7h0.068
			c0.417,0.438,2.981,3.325,5.5,5.82c2.404,2.38,5.363,5.406,6.818,6.792c0.253,0.254,0.531,0.507,0.785,0.507
			c0.208,0,0.303-0.206,0.303-0.716l0.254-14.574c0.022-1.293,0.205-1.776,0.853-1.962c0.276-0.067,0.462-0.067,0.692-0.067
			c0.277,0,0.415-0.07,0.415-0.208C92.028,10.805,91.798,10.783,91.499,10.783z"/>
	</g>
</g>
<path fill="#164193" d="M53.713,42.673c0.219-4.924-5.999-7.359-9.457-2.567c-0.463-2.836-2.052-5.668-6.407-5.62
	c-4.354-0.048-5.945,2.784-6.405,5.62c-3.468-4.792-9.801-2.355-9.7,2.567c4.124,5.329,10.172,9.125,16.051,12.142
	C43.675,51.798,49.669,48.086,53.713,42.673L53.713,42.673z"/>
<path fill="#A71916" d="M57.928,2.461H37.701H17.477c-1.037,10.426-1.801,20.828-0.329,29.959c0.747,3.991,2.393,7.362,4.597,10.253
	c-0.1-4.925,6.232-7.358,9.7-2.567c0.46-2.836,2.051-5.668,6.405-5.62c4.355-0.048,5.944,2.784,6.407,5.62
	c3.458-4.791,9.674-2.356,9.457,2.566c2.174-2.89,3.796-6.261,4.542-10.252C59.728,23.289,58.967,12.887,57.928,2.461z"/>
<path fill="#FFFFFF" d="M35.521,26.988l-0.104,7.836l0.002-0.002c0.694-0.224,1.499-0.345,2.43-0.337
	c0.772-0.007,1.456,0.075,2.064,0.23l-0.104-7.729c3.614,0.028,7.178,0.351,10.521,1.031c-0.199-1.912-0.343-3.791,0-5.931
	c-3.327,0.748-6.603,1.083-10.521,1.165v-6.093c3.037,0,5.798,0.375,8.337,0.948c-0.315-1.698-0.381-3.629,0-5.585
	c-2.604,0.47-5.233,0.872-8.31,0.872c0.014-2.799-0.053-5.103,0.55-7.82c-0.892,0.146-1.841,0.267-2.721,0.227
	c-0.881,0.041-1.83-0.08-2.721-0.227c0.604,2.719,0.538,5.021,0.55,7.82c-3.076,0-5.705-0.402-8.31-0.872
	c0.384,1.956,0.315,3.887,0,5.585c2.54-0.574,5.3-0.948,8.337-0.948v6.093c-3.919-0.081-7.191-0.417-10.519-1.165
	c0.343,2.14,0.198,4.019,0,5.931C28.341,27.338,31.906,27.016,35.521,26.988z"/>
</svg>
